# xmcd
#
# Track frame offsets: 
#        150
#        27825
#        43390
#        56837
#        71980
#        92042
#        113342
#        126352
#        151307
#        169205
#
# Disc length: 3036 seconds
#
# Revision: 1
# Processed by: cddbd v1.4PL0 Copyright (c) Steve Scherf et al.
# Submitted via: ExactAudioCopy v0.90a11
#
DISCID=8b0bda0a
DTITLE=The Tractors - Farmers In A Changing World
DYEAR=1900
DGENRE=
TTITLE0=I Wouldn't Tell You A Lie
TTITLE1=Linda Lou
TTITLE2=How Long Will It Take
TTITLE3=Shortenin' Bread
TTITLE4=The Worlds Biggest Fool
TTITLE5=Poor Boy Shuffle
TTITLE6=With A Girl Like You
TTITLE7=The Elvis Thing Mystery Train
TTITLE8=Way Too Late
TTITLE9=Foot Stomp Stompin'
EXTD=
EXTT0=
EXTT1=
EXTT2=
EXTT3=
EXTT4=
EXTT5=
EXTT6=
EXTT7=
EXTT8=
EXTT9=
PLAYORDER=
